#define 45fb372c84d7435ec335ab62fa50f57eZiZIVPwh8L17XdPi_width 24
#define 45fb372c84d7435ec335ab62fa50f57eZiZIVPwh8L17XdPi_height 24
static char 45fb372c84d7435ec335ab62fa50f57eZiZIVPwh8L17XdPi_bits[] = {
  0x00, 0x00, 0x00, 0x00, 0x00, 0x00, 0x00, 0x00, 0x00, 0x00, 0x00, 0x00, 
  0x00, 0x00, 0x00, 0x00, 0x00, 0x00, 0x00, 0x00, 0x00, 0x00, 0x81, 0x00, 
  0x80, 0xC3, 0x01, 0x00, 0xE7, 0x00, 0x00, 0x7E, 0x00, 0x00, 0x3C, 0x00, 
  0x00, 0x3C, 0x00, 0x00, 0x7E, 0x00, 0x00, 0xE7, 0x00, 0x80, 0xC3, 0x01, 
  0x00, 0x81, 0x00, 0x00, 0x00, 0x00, 0x00, 0x00, 0x00, 0x00, 0x00, 0x00, 
  0x00, 0x00, 0x00, 0x00, 0x00, 0x00, 0x00, 0x00, 0x00, 0x00, 0x00, 0x00, 
  };
