#define e695573c7041441091239bf42c6a8453_width 24
#define e695573c7041441091239bf42c6a8453_height 24
static char e695573c7041441091239bf42c6a8453_bits[] = {
  0x00, 0x00, 0x00, 0x00, 0x00, 0x00, 0x00, 0x00, 0x00, 0x00, 0x00, 0x00, 
  0x00, 0x00, 0x00, 0x00, 0x60, 0x00, 0x00, 0x60, 0x00, 0x00, 0x60, 0x00, 
  0x00, 0x60, 0x00, 0x00, 0xE0, 0x07, 0x00, 0xE0, 0x07, 0x00, 0x00, 0x00, 
  0x00, 0x00, 0x00, 0xE0, 0x07, 0x00, 0xE0, 0x07, 0x00, 0x00, 0x06, 0x00, 
  0x00, 0x06, 0x00, 0x00, 0x06, 0x00, 0x00, 0x06, 0x00, 0x00, 0x00, 0x00, 
  0x00, 0x00, 0x00, 0x00, 0x00, 0x00, 0x00, 0x00, 0x00, 0x00, 0x00, 0x00, 
  };
